<svg width="560" height="146" viewBox="0 0 560 146" fill="none" xmlns="http://www.w3.org/2000/svg">
<path fill-rule="evenodd" clip-rule="evenodd" d="M38.5774 22.2852L0.53125 0V130.331L27.664 114.438V146L83.6553 113.204L139.647 146V114.438L166.779 130.331V0L128.733 22.2852V82.6898L139.647 89.0559V28.5405L155.866 19.0402V111.291L116.245 88.0827V44.2478L83.6553 63.3543L51.0659 44.2478V88.0827L11.4447 111.291V19.0402L27.664 28.5405V89.0559L38.5774 82.6898V22.2852ZM89.1121 103.752V72.8058L105.331 63.2969V94.3381L128.733 108.046V126.96L89.1121 103.752ZM78.1985 72.8058L61.9794 63.2969V94.3381L38.5774 108.046V126.96L78.1985 103.752V72.8058Z" fill="black"/>
<path d="M557.724 123.504L555.325 119.41H552.804V123.504H551.383V112.809H555.661C556.578 112.809 557.362 113.135 558.014 113.787C558.666 114.429 558.992 115.208 558.992 116.125C558.992 116.817 558.783 117.449 558.365 118.019C557.958 118.59 557.428 118.992 556.776 119.226L559.297 123.504H557.724ZM552.804 114.138V118.126H555.661C556.191 118.126 556.639 117.933 557.005 117.546C557.382 117.148 557.571 116.675 557.571 116.125C557.571 115.575 557.382 115.106 557.005 114.719C556.639 114.332 556.191 114.138 555.661 114.138H552.804Z" fill="black"/>
<path d="M543.084 112.809H544.505V123.504H543.084V112.809Z" fill="black"/>
<path d="M535.727 123.504L534.856 121.106H530.044L529.173 123.504H527.66L531.648 112.809H533.252L537.24 123.504H535.727ZM530.533 119.776H534.368L532.442 114.505L530.533 119.776Z" fill="black"/>
<path d="M510.315 123.703C509.317 123.703 508.462 123.469 507.749 123C507.046 122.532 506.552 121.89 506.267 121.075L507.489 120.372C507.907 121.666 508.859 122.313 510.346 122.313C511.079 122.313 511.64 122.165 512.027 121.87C512.414 121.564 512.607 121.162 512.607 120.663C512.607 120.153 512.414 119.772 512.027 119.517C511.64 119.262 510.993 118.992 510.086 118.707C509.638 118.564 509.297 118.452 509.063 118.371C508.828 118.279 508.533 118.147 508.176 117.974C507.83 117.79 507.57 117.607 507.397 117.424C507.224 117.23 507.066 116.981 506.924 116.675C506.791 116.369 506.725 116.023 506.725 115.636C506.725 114.709 507.051 113.976 507.703 113.436C508.355 112.886 509.149 112.611 510.086 112.611C510.932 112.611 511.665 112.825 512.286 113.253C512.918 113.68 513.392 114.246 513.707 114.949L512.516 115.636C512.057 114.536 511.247 113.986 510.086 113.986C509.506 113.986 509.037 114.129 508.681 114.414C508.324 114.699 508.146 115.086 508.146 115.575C508.146 116.043 508.314 116.4 508.65 116.644C508.986 116.889 509.567 117.144 510.392 117.408C510.687 117.5 510.896 117.566 511.018 117.607C511.141 117.648 511.329 117.719 511.584 117.821C511.848 117.923 512.042 118.004 512.164 118.065C512.286 118.126 512.449 118.213 512.653 118.325C512.867 118.437 513.025 118.544 513.127 118.646C513.229 118.748 513.346 118.875 513.478 119.028C513.621 119.171 513.723 119.318 513.784 119.471C513.845 119.624 513.896 119.802 513.937 120.006C513.987 120.199 514.013 120.408 514.013 120.632C514.013 121.569 513.672 122.318 512.989 122.878C512.307 123.428 511.416 123.703 510.315 123.703Z" fill="black"/>
<path d="M499.789 123.504L498.918 121.106H494.105L493.234 123.504H491.722L495.709 112.809H497.314L501.301 123.504H499.789ZM494.594 119.776H498.429L496.504 114.505L494.594 119.776Z" fill="black"/>
<path d="M478.352 112.809V114.154H475.189V123.504H473.783V114.154H470.636V112.809H478.352Z" fill="black"/>
<path d="M463.228 112.809H464.634V123.504H463.228V118.691H458.033V123.504H456.612V112.809H458.033V117.347H463.228V112.809Z" fill="black"/>
<path d="M450.301 118.203V118.845C450.301 120.24 449.823 121.401 448.865 122.328C447.908 123.245 446.64 123.703 445.061 123.703C443.431 123.703 442.081 123.169 441.012 122.099C439.953 121.019 439.423 119.705 439.423 118.157C439.423 116.609 439.953 115.3 441.012 114.23C442.081 113.151 443.421 112.611 445.03 112.611C446.018 112.611 446.925 112.85 447.75 113.329C448.575 113.797 449.211 114.419 449.66 115.193L448.437 115.911C448.132 115.33 447.668 114.867 447.047 114.521C446.436 114.164 445.758 113.986 445.015 113.986C443.793 113.986 442.789 114.388 442.005 115.193C441.221 115.987 440.829 116.975 440.829 118.157C440.829 119.339 441.221 120.327 442.005 121.121C442.799 121.916 443.823 122.313 445.076 122.313C446.146 122.313 447.011 122.053 447.673 121.534C448.335 121.004 448.738 120.322 448.88 119.486H444.954V118.203H450.301Z" fill="black"/>
<path d="M431.69 112.809H433.111V123.504H431.69V112.809Z" fill="black"/>
<path d="M421.065 122.16H425.68V123.504H419.645V112.809H421.065V122.16Z" fill="black"/>
<path d="M401.277 123.703C400.279 123.703 399.424 123.469 398.711 123C398.008 122.532 397.514 121.89 397.229 121.075L398.451 120.372C398.868 121.666 399.821 122.313 401.308 122.313C402.041 122.313 402.602 122.165 402.989 121.87C403.376 121.564 403.569 121.162 403.569 120.663C403.569 120.153 403.376 119.772 402.989 119.517C402.602 119.262 401.955 118.992 401.048 118.707C400.6 118.564 400.259 118.452 400.025 118.371C399.79 118.279 399.495 118.147 399.138 117.974C398.792 117.79 398.532 117.607 398.359 117.424C398.186 117.23 398.028 116.981 397.885 116.675C397.753 116.369 397.687 116.023 397.687 115.636C397.687 114.709 398.013 113.976 398.665 113.436C399.317 112.886 400.111 112.611 401.048 112.611C401.894 112.611 402.627 112.825 403.248 113.253C403.88 113.68 404.354 114.246 404.669 114.949L403.478 115.636C403.019 114.536 402.209 113.986 401.048 113.986C400.468 113.986 399.999 114.129 399.643 114.414C399.286 114.699 399.108 115.086 399.108 115.575C399.108 116.043 399.276 116.4 399.612 116.644C399.948 116.889 400.529 117.144 401.354 117.408C401.649 117.5 401.858 117.566 401.98 117.607C402.102 117.648 402.291 117.719 402.546 117.821C402.81 117.923 403.004 118.004 403.126 118.065C403.248 118.126 403.411 118.213 403.615 118.325C403.829 118.437 403.987 118.544 404.089 118.646C404.191 118.748 404.308 118.875 404.44 119.028C404.583 119.171 404.685 119.318 404.746 119.471C404.807 119.624 404.858 119.802 404.898 120.006C404.949 120.199 404.975 120.408 404.975 120.632C404.975 121.569 404.634 122.318 403.951 122.878C403.269 123.428 402.377 123.703 401.277 123.703Z" fill="black"/>
<path d="M390.751 123.504L389.88 121.106H385.067L384.196 123.504H382.683L386.671 112.809H388.276L392.263 123.504H390.751ZM385.556 119.776H389.391L387.466 114.505L385.556 119.776Z" fill="black"/>
<path d="M365.339 123.703C364.341 123.703 363.485 123.469 362.772 123C362.069 122.532 361.575 121.89 361.29 121.075L362.512 120.372C362.93 121.666 363.882 122.313 365.369 122.313C366.103 122.313 366.663 122.165 367.05 121.87C367.437 121.564 367.631 121.162 367.631 120.663C367.631 120.153 367.437 119.772 367.05 119.517C366.663 119.262 366.016 118.992 365.11 118.707C364.662 118.564 364.32 118.452 364.086 118.371C363.852 118.279 363.556 118.147 363.2 117.974C362.854 117.79 362.594 117.607 362.421 117.424C362.248 117.23 362.09 116.981 361.947 116.675C361.815 116.369 361.748 116.023 361.748 115.636C361.748 114.709 362.074 113.976 362.726 113.436C363.378 112.886 364.173 112.611 365.11 112.611C365.955 112.611 366.689 112.825 367.31 113.253C367.941 113.68 368.415 114.246 368.731 114.949L367.539 115.636C367.081 114.536 366.271 113.986 365.11 113.986C364.529 113.986 364.061 114.129 363.704 114.414C363.348 114.699 363.169 115.086 363.169 115.575C363.169 116.043 363.337 116.4 363.674 116.644C364.01 116.889 364.59 117.144 365.415 117.408C365.711 117.5 365.92 117.566 366.042 117.607C366.164 117.648 366.352 117.719 366.607 117.821C366.872 117.923 367.065 118.004 367.188 118.065C367.31 118.126 367.473 118.213 367.677 118.325C367.89 118.437 368.048 118.544 368.15 118.646C368.252 118.748 368.369 118.875 368.502 119.028C368.644 119.171 368.746 119.318 368.807 119.471C368.868 119.624 368.919 119.802 368.96 120.006C369.011 120.199 369.036 120.408 369.036 120.632C369.036 121.569 368.695 122.318 368.013 122.878C367.33 123.428 366.439 123.703 365.339 123.703Z" fill="black"/>
<path d="M353.759 112.809H355.18V123.504H354.034L348.533 115.513V123.504H347.112V112.809H348.258L353.759 120.785V112.809Z" fill="black"/>
<path d="M339.202 122.084C338.132 123.163 336.823 123.703 335.275 123.703C333.727 123.703 332.418 123.163 331.348 122.084C330.279 121.004 329.744 119.695 329.744 118.157C329.744 116.609 330.279 115.3 331.348 114.23C332.418 113.151 333.727 112.611 335.275 112.611C336.823 112.611 338.132 113.151 339.202 114.23C340.281 115.3 340.821 116.609 340.821 118.157C340.821 119.695 340.281 121.004 339.202 122.084ZM332.326 121.121C333.121 121.916 334.104 122.313 335.275 122.313C336.446 122.313 337.424 121.916 338.209 121.121C339.003 120.316 339.4 119.328 339.4 118.157C339.4 116.975 339.003 115.987 338.209 115.193C337.424 114.388 336.446 113.986 335.275 113.986C334.104 113.986 333.121 114.388 332.326 115.193C331.542 115.987 331.15 116.975 331.15 118.157C331.15 119.328 331.542 120.316 332.326 121.121Z" fill="black"/>
<path d="M322.01 112.809H323.431V123.504H322.01V112.809Z" fill="black"/>
<path d="M316.02 112.809V114.154H312.858V123.504H311.452V114.154H308.305V112.809H316.02Z" fill="black"/>
<path d="M301.304 122.679C300.561 123.362 299.598 123.703 298.417 123.703C297.235 123.703 296.267 123.362 295.514 122.679C294.77 121.987 294.398 121.065 294.398 119.914V112.809H295.819V119.853C295.819 120.606 296.043 121.207 296.492 121.656C296.94 122.094 297.581 122.313 298.417 122.313C299.252 122.313 299.894 122.094 300.342 121.656C300.79 121.207 301.014 120.606 301.014 119.853V112.809H302.42V119.914C302.42 121.065 302.048 121.987 301.304 122.679Z" fill="black"/>
<path d="M284.076 122.16H288.691V123.504H282.655V112.809H284.076V122.16Z" fill="black"/>
<path d="M274.744 122.084C273.674 123.163 272.365 123.703 270.817 123.703C269.269 123.703 267.96 123.163 266.891 122.084C265.821 121.004 265.286 119.695 265.286 118.157C265.286 116.609 265.821 115.3 266.891 114.23C267.96 113.151 269.269 112.611 270.817 112.611C272.365 112.611 273.674 113.151 274.744 114.23C275.824 115.3 276.363 116.609 276.363 118.157C276.363 119.695 275.824 121.004 274.744 122.084ZM267.868 121.121C268.663 121.916 269.646 122.313 270.817 122.313C271.989 122.313 272.966 121.916 273.751 121.121C274.545 120.316 274.942 119.328 274.942 118.157C274.942 116.975 274.545 115.987 273.751 115.193C272.966 114.388 271.989 113.986 270.817 113.986C269.646 113.986 268.663 114.388 267.868 115.193C267.084 115.987 266.692 116.975 266.692 118.157C266.692 119.328 267.084 120.316 267.868 121.121Z" fill="black"/>
<path d="M255.963 123.703C254.965 123.703 254.109 123.469 253.396 123C252.693 122.532 252.199 121.89 251.914 121.075L253.136 120.372C253.554 121.666 254.506 122.313 255.993 122.313C256.727 122.313 257.287 122.165 257.674 121.87C258.061 121.564 258.255 121.162 258.255 120.663C258.255 120.153 258.061 119.772 257.674 119.517C257.287 119.262 256.64 118.992 255.734 118.707C255.285 118.564 254.944 118.452 254.71 118.371C254.476 118.279 254.18 118.147 253.824 117.974C253.477 117.79 253.218 117.607 253.045 117.424C252.871 117.23 252.714 116.981 252.571 116.675C252.439 116.369 252.372 116.023 252.372 115.636C252.372 114.709 252.698 113.976 253.35 113.436C254.002 112.886 254.797 112.611 255.734 112.611C256.579 112.611 257.312 112.825 257.934 113.253C258.565 113.68 259.039 114.246 259.355 114.949L258.163 115.636C257.705 114.536 256.895 113.986 255.734 113.986C255.153 113.986 254.685 114.129 254.328 114.414C253.971 114.699 253.793 115.086 253.793 115.575C253.793 116.043 253.961 116.4 254.297 116.644C254.634 116.889 255.214 117.144 256.039 117.408C256.335 117.5 256.543 117.566 256.666 117.607C256.788 117.648 256.976 117.719 257.231 117.821C257.496 117.923 257.689 118.004 257.812 118.065C257.934 118.126 258.097 118.213 258.3 118.325C258.514 118.437 258.672 118.544 258.774 118.646C258.876 118.748 258.993 118.875 259.126 119.028C259.268 119.171 259.37 119.318 259.431 119.471C259.492 119.624 259.543 119.802 259.584 120.006C259.635 120.199 259.66 120.408 259.66 120.632C259.66 121.569 259.319 122.318 258.637 122.878C257.954 123.428 257.063 123.703 255.963 123.703Z" fill="black"/>
<path d="M235.828 112.809H237.233V123.504H235.828V118.691H230.633V123.504H229.212V112.809H230.633V117.347H235.828V112.809Z" fill="black"/>
<path d="M218.405 123.703C216.785 123.703 215.446 123.169 214.386 122.099C213.337 121.029 212.813 119.715 212.813 118.157C212.813 116.599 213.337 115.285 214.386 114.215C215.446 113.146 216.785 112.611 218.405 112.611C219.383 112.611 220.279 112.845 221.094 113.314C221.919 113.782 222.561 114.414 223.019 115.208L221.781 115.926C221.476 115.336 221.017 114.867 220.406 114.521C219.805 114.164 219.138 113.986 218.405 113.986C217.172 113.986 216.164 114.383 215.38 115.178C214.605 115.972 214.218 116.965 214.218 118.157C214.218 119.339 214.605 120.327 215.38 121.121C216.164 121.916 217.172 122.313 218.405 122.313C219.138 122.313 219.805 122.14 220.406 121.793C221.017 121.437 221.476 120.968 221.781 120.388L223.019 121.091C222.571 121.885 221.934 122.522 221.109 123C220.284 123.469 219.383 123.703 218.405 123.703Z" fill="black"/>
<path d="M202.189 122.16H207.154V123.504H200.768V112.809H207.078V114.154H202.189V117.439H206.696V118.768H202.189V122.16Z" fill="black"/>
<path d="M194.777 112.809V114.154H191.615V123.504H190.209V114.154H187.062V112.809H194.777Z" fill="black"/>
<path fill-rule="evenodd" clip-rule="evenodd" d="M186.531 98V23H201.531V98H186.531Z" fill="black"/>
<path fill-rule="evenodd" clip-rule="evenodd" d="M409.531 98H349.531V83H409.531V98Z" fill="black"/>
<path fill-rule="evenodd" clip-rule="evenodd" d="M260.531 98H186.531V83H260.531V98Z" fill="black"/>
<path fill-rule="evenodd" clip-rule="evenodd" d="M483.531 98H424.531V83H483.531V98Z" fill="black"/>
<path fill-rule="evenodd" clip-rule="evenodd" d="M557.531 98H498.531V83H557.531V98Z" fill="black"/>
<path fill-rule="evenodd" clip-rule="evenodd" d="M335.531 69H275.531V54H335.531V69Z" fill="black"/>
<path fill-rule="evenodd" clip-rule="evenodd" d="M409.531 69H350.531V54H409.531V69Z" fill="black"/>
<path fill-rule="evenodd" clip-rule="evenodd" d="M335.531 38H275.531V23H335.531V38Z" fill="black"/>
<path fill-rule="evenodd" clip-rule="evenodd" d="M557.531 38H498.531V23H557.531V38Z" fill="black"/>
<path fill-rule="evenodd" clip-rule="evenodd" d="M215.531 98L215.531 54L230.362 54L230.362 98L215.531 98Z" fill="black"/>
<path fill-rule="evenodd" clip-rule="evenodd" d="M245.531 98V23H260.531V98H245.531Z" fill="black"/>
<path fill-rule="evenodd" clip-rule="evenodd" d="M275.531 98V23H290.531V98H275.531Z" fill="black"/>
<path fill-rule="evenodd" clip-rule="evenodd" d="M320.531 98V23H335.531V98H320.531Z" fill="black"/>
<path fill-rule="evenodd" clip-rule="evenodd" d="M350.531 69V23H365.531V69H350.531Z" fill="black"/>
<path fill-rule="evenodd" clip-rule="evenodd" d="M394.531 98V23H409.531V98H394.531Z" fill="black"/>
<path fill-rule="evenodd" clip-rule="evenodd" d="M424.531 98V23H439.362V98H424.531Z" fill="black"/>
<path fill-rule="evenodd" clip-rule="evenodd" d="M468.531 98V23H483.362V98H468.531Z" fill="black"/>
<path fill-rule="evenodd" clip-rule="evenodd" d="M498.531 98V23H513.362V98H498.531Z" fill="black"/>
<path fill-rule="evenodd" clip-rule="evenodd" d="M542.531 98L542.531 54L557.531 54L557.531 98L542.531 98Z" fill="black"/>
</svg>
