<svg width="559" height="146" viewBox="0 0 559 146" fill="none" xmlns="http://www.w3.org/2000/svg">
<path fill-rule="evenodd" clip-rule="evenodd" d="M38.0461 22.2852L0 0V130.331L27.1327 114.438V146L83.124 113.204L139.115 146V114.438L166.248 130.331V0L128.202 22.2852V82.6898L139.115 89.0559V28.5405L155.335 19.0402V111.291L115.713 88.0827V44.2478L83.124 63.3543L50.5347 44.2478V88.0827L10.9134 111.291V19.0402L27.1327 28.5405V89.0559L38.0461 82.6898V22.2852ZM88.5808 103.752V72.8058L104.8 63.2969V94.3381L128.202 108.046V126.96L88.5808 103.752ZM77.6672 72.8058L61.4481 63.2969V94.3381L38.0461 108.046V126.96L77.6672 103.752V72.8058Z" fill="url(#paint0_linear_1_526)"/>
<path d="M557.192 123.504L554.793 119.41H552.272V123.504H550.851V112.809H555.129C556.046 112.809 556.831 113.135 557.482 113.787C558.134 114.429 558.46 115.208 558.46 116.125C558.46 116.817 558.251 117.449 557.834 118.019C557.426 118.59 556.897 118.992 556.245 119.226L558.766 123.504H557.192ZM552.272 114.138V118.126H555.129C555.659 118.126 556.107 117.933 556.474 117.546C556.851 117.148 557.039 116.675 557.039 116.125C557.039 115.575 556.851 115.106 556.474 114.719C556.107 114.332 555.659 114.138 555.129 114.138H552.272Z" fill="#818791"/>
<path d="M542.553 112.809H543.974V123.504H542.553V112.809Z" fill="#818791"/>
<path d="M535.196 123.504L534.325 121.106H529.512L528.641 123.504H527.129L531.117 112.809H532.721L536.709 123.504H535.196ZM530.001 119.776H533.836L531.911 114.505L530.001 119.776Z" fill="#818791"/>
<path d="M509.784 123.703C508.786 123.703 507.93 123.469 507.217 123C506.515 122.532 506.021 121.89 505.735 121.075L506.958 120.372C507.375 121.666 508.328 122.313 509.815 122.313C510.548 122.313 511.108 122.165 511.495 121.87C511.883 121.564 512.076 121.162 512.076 120.663C512.076 120.153 511.883 119.772 511.495 119.517C511.108 119.262 510.462 118.992 509.555 118.707C509.107 118.564 508.766 118.452 508.531 118.371C508.297 118.279 508.002 118.147 507.645 117.974C507.299 117.79 507.039 117.607 506.866 117.424C506.693 117.23 506.535 116.981 506.392 116.675C506.26 116.369 506.194 116.023 506.194 115.636C506.194 114.709 506.52 113.976 507.172 113.436C507.823 112.886 508.618 112.611 509.555 112.611C510.4 112.611 511.134 112.825 511.755 113.253C512.387 113.68 512.86 114.246 513.176 114.949L511.984 115.636C511.526 114.536 510.716 113.986 509.555 113.986C508.974 113.986 508.506 114.129 508.149 114.414C507.793 114.699 507.615 115.086 507.615 115.575C507.615 116.043 507.783 116.4 508.119 116.644C508.455 116.889 509.036 117.144 509.861 117.408C510.156 117.5 510.365 117.566 510.487 117.607C510.609 117.648 510.798 117.719 511.052 117.821C511.317 117.923 511.511 118.004 511.633 118.065C511.755 118.126 511.918 118.213 512.122 118.325C512.336 118.437 512.494 118.544 512.596 118.646C512.697 118.748 512.815 118.875 512.947 119.028C513.09 119.171 513.191 119.318 513.253 119.471C513.314 119.624 513.365 119.802 513.405 120.006C513.456 120.199 513.482 120.408 513.482 120.632C513.482 121.569 513.14 122.318 512.458 122.878C511.776 123.428 510.884 123.703 509.784 123.703Z" fill="#818791"/>
<path d="M499.258 123.504L498.387 121.106H493.574L492.703 123.504H491.19L495.178 112.809H496.782L500.77 123.504H499.258ZM494.063 119.776H497.898L495.973 114.505L494.063 119.776Z" fill="#818791"/>
<path d="M477.821 112.809V114.154H474.658V123.504H473.252V114.154H470.105V112.809H477.821Z" fill="#818791"/>
<path d="M462.697 112.809H464.102V123.504H462.697V118.691H457.502V123.504H456.081V112.809H457.502V117.347H462.697V112.809Z" fill="#818791"/>
<path d="M449.77 118.203V118.845C449.77 120.24 449.291 121.401 448.334 122.328C447.376 123.245 446.108 123.703 444.529 123.703C442.9 123.703 441.55 123.169 440.481 122.099C439.421 121.019 438.892 119.705 438.892 118.157C438.892 116.609 439.421 115.3 440.481 114.23C441.55 113.151 442.89 112.611 444.499 112.611C445.487 112.611 446.394 112.85 447.219 113.329C448.044 113.797 448.68 114.419 449.128 115.193L447.906 115.911C447.601 115.33 447.137 114.867 446.516 114.521C445.905 114.164 445.227 113.986 444.484 113.986C443.261 113.986 442.258 114.388 441.474 115.193C440.689 115.987 440.297 116.975 440.297 118.157C440.297 119.339 440.689 120.327 441.474 121.121C442.268 121.916 443.292 122.313 444.545 122.313C445.614 122.313 446.48 122.053 447.142 121.534C447.804 121.004 448.207 120.322 448.349 119.486H444.423V118.203H449.77Z" fill="#818791"/>
<path d="M431.159 112.809H432.58V123.504H431.159V112.809Z" fill="#818791"/>
<path d="M420.534 122.16H425.148V123.504H419.113V112.809H420.534V122.16Z" fill="#818791"/>
<path d="M400.746 123.703C399.748 123.703 398.892 123.469 398.179 123C397.476 122.532 396.982 121.89 396.697 121.075L397.92 120.372C398.337 121.666 399.29 122.313 400.777 122.313C401.51 122.313 402.07 122.165 402.457 121.87C402.844 121.564 403.038 121.162 403.038 120.663C403.038 120.153 402.844 119.772 402.457 119.517C402.07 119.262 401.424 118.992 400.517 118.707C400.069 118.564 399.728 118.452 399.493 118.371C399.259 118.279 398.964 118.147 398.607 117.974C398.261 117.79 398.001 117.607 397.828 117.424C397.655 117.23 397.497 116.981 397.354 116.675C397.222 116.369 397.156 116.023 397.156 115.636C397.156 114.709 397.482 113.976 398.133 113.436C398.785 112.886 399.58 112.611 400.517 112.611C401.362 112.611 402.096 112.825 402.717 113.253C403.349 113.68 403.822 114.246 404.138 114.949L402.946 115.636C402.488 114.536 401.678 113.986 400.517 113.986C399.936 113.986 399.468 114.129 399.111 114.414C398.755 114.699 398.577 115.086 398.577 115.575C398.577 116.043 398.745 116.4 399.081 116.644C399.417 116.889 399.997 117.144 400.823 117.408C401.118 117.5 401.327 117.566 401.449 117.607C401.571 117.648 401.76 117.719 402.014 117.821C402.279 117.923 402.473 118.004 402.595 118.065C402.717 118.126 402.88 118.213 403.084 118.325C403.298 118.437 403.456 118.544 403.557 118.646C403.659 118.748 403.776 118.875 403.909 119.028C404.051 119.171 404.153 119.318 404.214 119.471C404.276 119.624 404.326 119.802 404.367 120.006C404.418 120.199 404.444 120.408 404.444 120.632C404.444 121.569 404.102 122.318 403.42 122.878C402.737 123.428 401.846 123.703 400.746 123.703Z" fill="#818791"/>
<path d="M390.219 123.504L389.349 121.106H384.536L383.665 123.504H382.152L386.14 112.809H387.744L391.732 123.504H390.219ZM385.025 119.776H388.86L386.934 114.505L385.025 119.776Z" fill="#818791"/>
<path d="M364.808 123.703C363.809 123.703 362.954 123.469 362.241 123C361.538 122.532 361.044 121.89 360.759 121.075L361.981 120.372C362.399 121.666 363.351 122.313 364.838 122.313C365.572 122.313 366.132 122.165 366.519 121.87C366.906 121.564 367.1 121.162 367.1 120.663C367.1 120.153 366.906 119.772 366.519 119.517C366.132 119.262 365.485 118.992 364.578 118.707C364.13 118.564 363.789 118.452 363.555 118.371C363.321 118.279 363.025 118.147 362.669 117.974C362.322 117.79 362.063 117.607 361.889 117.424C361.716 117.23 361.558 116.981 361.416 116.675C361.283 116.369 361.217 116.023 361.217 115.636C361.217 114.709 361.543 113.976 362.195 113.436C362.847 112.886 363.641 112.611 364.578 112.611C365.424 112.611 366.157 112.825 366.779 113.253C367.41 113.68 367.884 114.246 368.2 114.949L367.008 115.636C366.549 114.536 365.74 113.986 364.578 113.986C363.998 113.986 363.529 114.129 363.173 114.414C362.816 114.699 362.638 115.086 362.638 115.575C362.638 116.043 362.806 116.4 363.142 116.644C363.478 116.889 364.059 117.144 364.884 117.408C365.179 117.5 365.388 117.566 365.511 117.607C365.633 117.648 365.821 117.719 366.076 117.821C366.341 117.923 366.534 118.004 366.656 118.065C366.779 118.126 366.942 118.213 367.145 118.325C367.359 118.437 367.517 118.544 367.619 118.646C367.721 118.748 367.838 118.875 367.97 119.028C368.113 119.171 368.215 119.318 368.276 119.471C368.337 119.624 368.388 119.802 368.429 120.006C368.48 120.199 368.505 120.408 368.505 120.632C368.505 121.569 368.164 122.318 367.481 122.878C366.799 123.428 365.908 123.703 364.808 123.703Z" fill="#818791"/>
<path d="M353.227 112.809H354.648V123.504H353.502L348.002 115.513V123.504H346.581V112.809H347.727L353.227 120.785V112.809Z" fill="#818791"/>
<path d="M338.671 122.084C337.601 123.163 336.292 123.703 334.744 123.703C333.196 123.703 331.887 123.163 330.817 122.084C329.748 121.004 329.213 119.695 329.213 118.157C329.213 116.609 329.748 115.3 330.817 114.23C331.887 113.151 333.196 112.611 334.744 112.611C336.292 112.611 337.601 113.151 338.671 114.23C339.75 115.3 340.29 116.609 340.29 118.157C340.29 119.695 339.75 121.004 338.671 122.084ZM331.795 121.121C332.59 121.916 333.573 122.313 334.744 122.313C335.915 122.313 336.893 121.916 337.677 121.121C338.472 120.316 338.869 119.328 338.869 118.157C338.869 116.975 338.472 115.987 337.677 115.193C336.893 114.388 335.915 113.986 334.744 113.986C333.573 113.986 332.59 114.388 331.795 115.193C331.011 115.987 330.619 116.975 330.619 118.157C330.619 119.328 331.011 120.316 331.795 121.121Z" fill="#818791"/>
<path d="M321.479 112.809H322.899V123.504H321.479V112.809Z" fill="#818791"/>
<path d="M315.489 112.809V114.154H312.327V123.504H310.921V114.154H307.773V112.809H315.489Z" fill="#818791"/>
<path d="M300.773 122.679C300.03 123.362 299.067 123.703 297.885 123.703C296.704 123.703 295.736 123.362 294.982 122.679C294.239 121.987 293.867 121.065 293.867 119.914V112.809H295.288V119.853C295.288 120.606 295.512 121.207 295.96 121.656C296.408 122.094 297.05 122.313 297.885 122.313C298.721 122.313 299.362 122.094 299.811 121.656C300.259 121.207 300.483 120.606 300.483 119.853V112.809H301.888V119.914C301.888 121.065 301.517 121.987 300.773 122.679Z" fill="#818791"/>
<path d="M283.545 122.16H288.159V123.504H282.124V112.809H283.545V122.16Z" fill="#818791"/>
<path d="M274.213 122.084C273.143 123.163 271.834 123.703 270.286 123.703C268.738 123.703 267.429 123.163 266.359 122.084C265.29 121.004 264.755 119.695 264.755 118.157C264.755 116.609 265.29 115.3 266.359 114.23C267.429 113.151 268.738 112.611 270.286 112.611C271.834 112.611 273.143 113.151 274.213 114.23C275.292 115.3 275.832 116.609 275.832 118.157C275.832 119.695 275.292 121.004 274.213 122.084ZM267.337 121.121C268.132 121.916 269.115 122.313 270.286 122.313C271.457 122.313 272.435 121.916 273.219 121.121C274.014 120.316 274.411 119.328 274.411 118.157C274.411 116.975 274.014 115.987 273.219 115.193C272.435 114.388 271.457 113.986 270.286 113.986C269.115 113.986 268.132 114.388 267.337 115.193C266.553 115.987 266.161 116.975 266.161 118.157C266.161 119.328 266.553 120.316 267.337 121.121Z" fill="#818791"/>
<path d="M255.432 123.703C254.433 123.703 253.578 123.469 252.865 123C252.162 122.532 251.668 121.89 251.383 121.075L252.605 120.372C253.023 121.666 253.975 122.313 255.462 122.313C256.196 122.313 256.756 122.165 257.143 121.87C257.53 121.564 257.723 121.162 257.723 120.663C257.723 120.153 257.53 119.772 257.143 119.517C256.756 119.262 256.109 118.992 255.202 118.707C254.754 118.564 254.413 118.452 254.179 118.371C253.944 118.279 253.649 118.147 253.293 117.974C252.946 117.79 252.687 117.607 252.513 117.424C252.34 117.23 252.182 116.981 252.04 116.675C251.907 116.369 251.841 116.023 251.841 115.636C251.841 114.709 252.167 113.976 252.819 113.436C253.471 112.886 254.265 112.611 255.202 112.611C256.048 112.611 256.781 112.825 257.403 113.253C258.034 113.68 258.508 114.246 258.824 114.949L257.632 115.636C257.173 114.536 256.364 113.986 255.202 113.986C254.622 113.986 254.153 114.129 253.797 114.414C253.44 114.699 253.262 115.086 253.262 115.575C253.262 116.043 253.43 116.4 253.766 116.644C254.102 116.889 254.683 117.144 255.508 117.408C255.803 117.5 256.012 117.566 256.134 117.607C256.257 117.648 256.445 117.719 256.7 117.821C256.965 117.923 257.158 118.004 257.28 118.065C257.403 118.126 257.566 118.213 257.769 118.325C257.983 118.437 258.141 118.544 258.243 118.646C258.345 118.748 258.462 118.875 258.594 119.028C258.737 119.171 258.839 119.318 258.9 119.471C258.961 119.624 259.012 119.802 259.053 120.006C259.104 120.199 259.129 120.408 259.129 120.632C259.129 121.569 258.788 122.318 258.105 122.878C257.423 123.428 256.532 123.703 255.432 123.703Z" fill="#818791"/>
<path d="M235.296 112.809H236.702V123.504H235.296V118.691H230.102V123.504H228.681V112.809H230.102V117.347H235.296V112.809Z" fill="#818791"/>
<path d="M217.874 123.703C216.254 123.703 214.915 123.169 213.855 122.099C212.806 121.029 212.281 119.715 212.281 118.157C212.281 116.599 212.806 115.285 213.855 114.215C214.915 113.146 216.254 112.611 217.874 112.611C218.851 112.611 219.748 112.845 220.563 113.314C221.388 113.782 222.029 114.414 222.488 115.208L221.25 115.926C220.945 115.336 220.486 114.867 219.875 114.521C219.274 114.164 218.607 113.986 217.874 113.986C216.641 113.986 215.633 114.383 214.848 115.178C214.074 115.972 213.687 116.965 213.687 118.157C213.687 119.339 214.074 120.327 214.848 121.121C215.633 121.916 216.641 122.313 217.874 122.313C218.607 122.313 219.274 122.14 219.875 121.793C220.486 121.437 220.945 120.968 221.25 120.388L222.488 121.091C222.04 121.885 221.403 122.522 220.578 123C219.753 123.469 218.851 123.703 217.874 123.703Z" fill="#818791"/>
<path d="M201.657 122.16H206.623V123.504H200.236V112.809H206.546V114.154H201.657V117.439H206.165V118.768H201.657V122.16Z" fill="#818791"/>
<path d="M194.246 112.809V114.154H191.083V123.504H189.678V114.154H186.53V112.809H194.246Z" fill="#818791"/>
<path fill-rule="evenodd" clip-rule="evenodd" d="M186 98V23H201V98H186Z" fill="#818791"/>
<path fill-rule="evenodd" clip-rule="evenodd" d="M409 98H349V83H409V98Z" fill="#818791"/>
<path fill-rule="evenodd" clip-rule="evenodd" d="M260 98H186V83H260V98Z" fill="#818791"/>
<path fill-rule="evenodd" clip-rule="evenodd" d="M483 98H424V83H483V98Z" fill="#818791"/>
<path fill-rule="evenodd" clip-rule="evenodd" d="M557 98H498V83H557V98Z" fill="#818791"/>
<path fill-rule="evenodd" clip-rule="evenodd" d="M335 69H275V54H335V69Z" fill="#818791"/>
<path fill-rule="evenodd" clip-rule="evenodd" d="M409 69H350V54H409V69Z" fill="#818791"/>
<path fill-rule="evenodd" clip-rule="evenodd" d="M335 38H275V23H335V38Z" fill="#818791"/>
<path fill-rule="evenodd" clip-rule="evenodd" d="M557 38H498V23H557V38Z" fill="#818791"/>
<path fill-rule="evenodd" clip-rule="evenodd" d="M215 98L215 54L229.83 54L229.83 98L215 98Z" fill="#818791"/>
<path fill-rule="evenodd" clip-rule="evenodd" d="M245 98V23H260V98H245Z" fill="#818791"/>
<path fill-rule="evenodd" clip-rule="evenodd" d="M275 98V23H290V98H275Z" fill="#818791"/>
<path fill-rule="evenodd" clip-rule="evenodd" d="M320 98V23H335V98H320Z" fill="#818791"/>
<path fill-rule="evenodd" clip-rule="evenodd" d="M350 69V23H365V69H350Z" fill="#818791"/>
<path fill-rule="evenodd" clip-rule="evenodd" d="M394 98V23H409V98H394Z" fill="#818791"/>
<path fill-rule="evenodd" clip-rule="evenodd" d="M424 98V23H438.83V98H424Z" fill="#818791"/>
<path fill-rule="evenodd" clip-rule="evenodd" d="M468 98V23H482.83V98H468Z" fill="#818791"/>
<path fill-rule="evenodd" clip-rule="evenodd" d="M498 98V23H512.83V98H498Z" fill="#818791"/>
<path fill-rule="evenodd" clip-rule="evenodd" d="M542 98L542 54L557 54L557 98L542 98Z" fill="#818791"/>
<defs>
<linearGradient id="paint0_linear_1_526" x1="-3.3516e-07" y1="66.663" x2="171.159" y2="82.7603" gradientUnits="userSpaceOnUse">
<stop stop-color="#1661D2"/>
<stop offset="1" stop-color="#5898F7"/>
</linearGradient>
</defs>
</svg>
