<svg width="228" height="200" viewBox="0 0 228 200" fill="none" xmlns="http://www.w3.org/2000/svg">
<path id="color" fill-rule="evenodd" clip-rule="evenodd" d="M52.118 30.5277L0 0V178.535L37.1681 156.764V200L113.869 155.073L190.569 200V156.764L227.737 178.535V0L175.619 30.5277V113.274L190.569 121.994V39.0966L212.787 26.0825V152.453L158.512 120.661V60.6135L113.869 86.7867L69.2256 60.6135V120.661L14.9499 152.453V26.0825L37.1681 39.0966V121.994L52.118 113.274V30.5277ZM52.118 173.917V148.008L84.1755 129.23V86.7081L106.394 99.7341V142.126L52.118 173.917ZM175.619 173.917V148.008L143.562 129.23V86.7081L121.344 99.7341V142.126L175.619 173.917Z" fill="url(#paint0_linear_1_292)"/>
<defs>
<linearGradient id="paint0_linear_1_292" x1="-4.59124e-07" y1="91.3191" x2="234.465" y2="113.37" gradientUnits="userSpaceOnUse">
<stop stop-color="#1661D2"/>
<stop offset="1" stop-color="#5898F7"/>
</linearGradient>
</defs>
</svg>
