<svg width="560" height="146" viewBox="0 0 560 146" fill="none" xmlns="http://www.w3.org/2000/svg">
<path fill-rule="evenodd" clip-rule="evenodd" d="M38.8118 22.2852L0.765625 0V130.331L27.8983 114.438V146L83.8896 113.204L139.881 146V114.438L167.014 130.331V0L128.968 22.2852V82.6898L139.881 89.0559V28.5405L156.1 19.0402V111.291L116.479 88.0827V44.2478L83.8896 63.3543L51.3003 44.2478V88.0827L11.6791 111.291V19.0402L27.8983 28.5405V89.0559L38.8118 82.6898V22.2852ZM89.3464 103.752V72.8058L105.566 63.2969V94.3381L128.968 108.046V126.96L89.3464 103.752ZM78.4329 72.8058L62.2137 63.2969V94.3381L38.8118 108.046V126.96L78.4329 103.752V72.8058Z" fill="white"/>
<path d="M557.958 123.504L555.559 119.41H553.038V123.504H551.617V112.809H555.895C556.812 112.809 557.596 113.135 558.248 113.787C558.9 114.429 559.226 115.208 559.226 116.125C559.226 116.817 559.017 117.449 558.599 118.019C558.192 118.59 557.662 118.992 557.01 119.226L559.531 123.504H557.958ZM553.038 114.138V118.126H555.895C556.425 118.126 556.873 117.933 557.24 117.546C557.617 117.148 557.805 116.675 557.805 116.125C557.805 115.575 557.617 115.106 557.24 114.719C556.873 114.332 556.425 114.138 555.895 114.138H553.038Z" fill="white"/>
<path d="M543.318 112.809H544.739V123.504H543.318V112.809Z" fill="white"/>
<path d="M535.962 123.504L535.091 121.106H530.278L529.407 123.504H527.894L531.882 112.809H533.486L537.474 123.504H535.962ZM530.767 119.776H534.602L532.677 114.505L530.767 119.776Z" fill="white"/>
<path d="M510.55 123.703C509.552 123.703 508.696 123.469 507.983 123C507.28 122.532 506.786 121.89 506.501 121.075L507.723 120.372C508.141 121.666 509.093 122.313 510.58 122.313C511.314 122.313 511.874 122.165 512.261 121.87C512.648 121.564 512.842 121.162 512.842 120.663C512.842 120.153 512.648 119.772 512.261 119.517C511.874 119.262 511.227 118.992 510.321 118.707C509.873 118.564 509.531 118.452 509.297 118.371C509.063 118.279 508.767 118.147 508.411 117.974C508.065 117.79 507.805 117.607 507.632 117.424C507.458 117.23 507.301 116.981 507.158 116.675C507.026 116.369 506.959 116.023 506.959 115.636C506.959 114.709 507.285 113.976 507.937 113.436C508.589 112.886 509.384 112.611 510.321 112.611C511.166 112.611 511.899 112.825 512.521 113.253C513.152 113.68 513.626 114.246 513.942 114.949L512.75 115.636C512.292 114.536 511.482 113.986 510.321 113.986C509.74 113.986 509.272 114.129 508.915 114.414C508.559 114.699 508.38 115.086 508.38 115.575C508.38 116.043 508.548 116.4 508.884 116.644C509.221 116.889 509.801 117.144 510.626 117.408C510.922 117.5 511.13 117.566 511.253 117.607C511.375 117.648 511.563 117.719 511.818 117.821C512.083 117.923 512.276 118.004 512.399 118.065C512.521 118.126 512.684 118.213 512.888 118.325C513.101 118.437 513.259 118.544 513.361 118.646C513.463 118.748 513.58 118.875 513.713 119.028C513.855 119.171 513.957 119.318 514.018 119.471C514.079 119.624 514.13 119.802 514.171 120.006C514.222 120.199 514.247 120.408 514.247 120.632C514.247 121.569 513.906 122.318 513.224 122.878C512.541 123.428 511.65 123.703 510.55 123.703Z" fill="white"/>
<path d="M500.023 123.504L499.152 121.106H494.34L493.469 123.504H491.956L495.944 112.809H497.548L501.536 123.504H500.023ZM494.828 119.776H498.663L496.738 114.505L494.828 119.776Z" fill="white"/>
<path d="M478.586 112.809V114.154H475.423V123.504H474.018V114.154H470.87V112.809H478.586Z" fill="white"/>
<path d="M463.462 112.809H464.868V123.504H463.462V118.691H458.268V123.504H456.847V112.809H458.268V117.347H463.462V112.809Z" fill="white"/>
<path d="M450.536 118.203V118.845C450.536 120.24 450.057 121.401 449.1 122.328C448.142 123.245 446.874 123.703 445.295 123.703C443.665 123.703 442.316 123.169 441.246 122.099C440.187 121.019 439.657 119.705 439.657 118.157C439.657 116.609 440.187 115.3 441.246 114.23C442.316 113.151 443.655 112.611 445.265 112.611C446.253 112.611 447.159 112.85 447.984 113.329C448.809 113.797 449.446 114.419 449.894 115.193L448.672 115.911C448.366 115.33 447.903 114.867 447.281 114.521C446.67 114.164 445.993 113.986 445.249 113.986C444.027 113.986 443.024 114.388 442.239 115.193C441.455 115.987 441.063 116.975 441.063 118.157C441.063 119.339 441.455 120.327 442.239 121.121C443.034 121.916 444.058 122.313 445.31 122.313C446.38 122.313 447.246 122.053 447.908 121.534C448.57 121.004 448.972 120.322 449.115 119.486H445.188V118.203H450.536Z" fill="white"/>
<path d="M431.925 112.809H433.346V123.504H431.925V112.809Z" fill="white"/>
<path d="M421.3 122.16H425.914V123.504H419.879V112.809H421.3V122.16Z" fill="white"/>
<path d="M401.512 123.703C400.514 123.703 399.658 123.469 398.945 123C398.242 122.532 397.748 121.89 397.463 121.075L398.685 120.372C399.103 121.666 400.055 122.313 401.542 122.313C402.276 122.313 402.836 122.165 403.223 121.87C403.61 121.564 403.804 121.162 403.804 120.663C403.804 120.153 403.61 119.772 403.223 119.517C402.836 119.262 402.189 118.992 401.283 118.707C400.834 118.564 400.493 118.452 400.259 118.371C400.025 118.279 399.729 118.147 399.373 117.974C399.026 117.79 398.767 117.607 398.594 117.424C398.42 117.23 398.262 116.981 398.12 116.675C397.987 116.369 397.921 116.023 397.921 115.636C397.921 114.709 398.247 113.976 398.899 113.436C399.551 112.886 400.345 112.611 401.283 112.611C402.128 112.611 402.861 112.825 403.483 113.253C404.114 113.68 404.588 114.246 404.904 114.949L403.712 115.636C403.254 114.536 402.444 113.986 401.283 113.986C400.702 113.986 400.233 114.129 399.877 114.414C399.52 114.699 399.342 115.086 399.342 115.575C399.342 116.043 399.51 116.4 399.846 116.644C400.183 116.889 400.763 117.144 401.588 117.408C401.884 117.5 402.092 117.566 402.215 117.607C402.337 117.648 402.525 117.719 402.78 117.821C403.045 117.923 403.238 118.004 403.361 118.065C403.483 118.126 403.646 118.213 403.849 118.325C404.063 118.437 404.221 118.544 404.323 118.646C404.425 118.748 404.542 118.875 404.674 119.028C404.817 119.171 404.919 119.318 404.98 119.471C405.041 119.624 405.092 119.802 405.133 120.006C405.184 120.199 405.209 120.408 405.209 120.632C405.209 121.569 404.868 122.318 404.186 122.878C403.503 123.428 402.612 123.703 401.512 123.703Z" fill="white"/>
<path d="M390.985 123.504L390.114 121.106H385.301L384.43 123.504H382.918L386.906 112.809H388.51L392.498 123.504H390.985ZM385.79 119.776H389.625L387.7 114.505L385.79 119.776Z" fill="white"/>
<path d="M365.573 123.703C364.575 123.703 363.719 123.469 363.006 123C362.304 122.532 361.81 121.89 361.524 121.075L362.747 120.372C363.164 121.666 364.117 122.313 365.604 122.313C366.337 122.313 366.897 122.165 367.285 121.87C367.672 121.564 367.865 121.162 367.865 120.663C367.865 120.153 367.672 119.772 367.285 119.517C366.897 119.262 366.251 118.992 365.344 118.707C364.896 118.564 364.555 118.452 364.32 118.371C364.086 118.279 363.791 118.147 363.434 117.974C363.088 117.79 362.828 117.607 362.655 117.424C362.482 117.23 362.324 116.981 362.181 116.675C362.049 116.369 361.983 116.023 361.983 115.636C361.983 114.709 362.309 113.976 362.961 113.436C363.613 112.886 364.407 112.611 365.344 112.611C366.19 112.611 366.923 112.825 367.544 113.253C368.176 113.68 368.649 114.246 368.965 114.949L367.773 115.636C367.315 114.536 366.505 113.986 365.344 113.986C364.764 113.986 364.295 114.129 363.938 114.414C363.582 114.699 363.404 115.086 363.404 115.575C363.404 116.043 363.572 116.4 363.908 116.644C364.244 116.889 364.825 117.144 365.65 117.408C365.945 117.5 366.154 117.566 366.276 117.607C366.398 117.648 366.587 117.719 366.841 117.821C367.106 117.923 367.3 118.004 367.422 118.065C367.544 118.126 367.707 118.213 367.911 118.325C368.125 118.437 368.283 118.544 368.385 118.646C368.486 118.748 368.604 118.875 368.736 119.028C368.879 119.171 368.98 119.318 369.042 119.471C369.103 119.624 369.154 119.802 369.194 120.006C369.245 120.199 369.271 120.408 369.271 120.632C369.271 121.569 368.93 122.318 368.247 122.878C367.565 123.428 366.673 123.703 365.573 123.703Z" fill="white"/>
<path d="M353.993 112.809H355.414V123.504H354.268L348.768 115.513V123.504H347.347V112.809H348.493L353.993 120.785V112.809Z" fill="white"/>
<path d="M339.436 122.084C338.367 123.163 337.058 123.703 335.509 123.703C333.961 123.703 332.652 123.163 331.583 122.084C330.513 121.004 329.979 119.695 329.979 118.157C329.979 116.609 330.513 115.3 331.583 114.23C332.652 113.151 333.961 112.611 335.509 112.611C337.058 112.611 338.367 113.151 339.436 114.23C340.516 115.3 341.056 116.609 341.056 118.157C341.056 119.695 340.516 121.004 339.436 122.084ZM332.561 121.121C333.355 121.916 334.338 122.313 335.509 122.313C336.681 122.313 337.659 121.916 338.443 121.121C339.237 120.316 339.635 119.328 339.635 118.157C339.635 116.975 339.237 115.987 338.443 115.193C337.659 114.388 336.681 113.986 335.509 113.986C334.338 113.986 333.355 114.388 332.561 115.193C331.776 115.987 331.384 116.975 331.384 118.157C331.384 119.328 331.776 120.316 332.561 121.121Z" fill="white"/>
<path d="M322.244 112.809H323.665V123.504H322.244V112.809Z" fill="white"/>
<path d="M316.255 112.809V114.154H313.092V123.504H311.686V114.154H308.539V112.809H316.255Z" fill="white"/>
<path d="M301.539 122.679C300.795 123.362 299.833 123.703 298.651 123.703C297.469 123.703 296.502 123.362 295.748 122.679C295.004 121.987 294.633 121.065 294.633 119.914V112.809H296.054V119.853C296.054 120.606 296.278 121.207 296.726 121.656C297.174 122.094 297.816 122.313 298.651 122.313C299.486 122.313 300.128 122.094 300.576 121.656C301.024 121.207 301.248 120.606 301.248 119.853V112.809H302.654V119.914C302.654 121.065 302.282 121.987 301.539 122.679Z" fill="white"/>
<path d="M284.311 122.16H288.925V123.504H282.89V112.809H284.311V122.16Z" fill="white"/>
<path d="M274.978 122.084C273.909 123.163 272.6 123.703 271.052 123.703C269.503 123.703 268.194 123.163 267.125 122.084C266.055 121.004 265.521 119.695 265.521 118.157C265.521 116.609 266.055 115.3 267.125 114.23C268.194 113.151 269.503 112.611 271.052 112.611C272.6 112.611 273.909 113.151 274.978 114.23C276.058 115.3 276.598 116.609 276.598 118.157C276.598 119.695 276.058 121.004 274.978 122.084ZM268.103 121.121C268.897 121.916 269.88 122.313 271.052 122.313C272.223 122.313 273.201 121.916 273.985 121.121C274.78 120.316 275.177 119.328 275.177 118.157C275.177 116.975 274.78 115.987 273.985 115.193C273.201 114.388 272.223 113.986 271.052 113.986C269.88 113.986 268.897 114.388 268.103 115.193C267.318 115.987 266.926 116.975 266.926 118.157C266.926 119.328 267.318 120.316 268.103 121.121Z" fill="white"/>
<path d="M256.197 123.703C255.199 123.703 254.343 123.469 253.63 123C252.928 122.532 252.434 121.89 252.148 121.075L253.371 120.372C253.788 121.666 254.741 122.313 256.228 122.313C256.961 122.313 257.521 122.165 257.908 121.87C258.296 121.564 258.489 121.162 258.489 120.663C258.489 120.153 258.296 119.772 257.908 119.517C257.521 119.262 256.875 118.992 255.968 118.707C255.52 118.564 255.179 118.452 254.944 118.371C254.71 118.279 254.415 118.147 254.058 117.974C253.712 117.79 253.452 117.607 253.279 117.424C253.106 117.23 252.948 116.981 252.805 116.675C252.673 116.369 252.607 116.023 252.607 115.636C252.607 114.709 252.933 113.976 253.585 113.436C254.236 112.886 255.031 112.611 255.968 112.611C256.813 112.611 257.547 112.825 258.168 113.253C258.8 113.68 259.273 114.246 259.589 114.949L258.397 115.636C257.939 114.536 257.129 113.986 255.968 113.986C255.387 113.986 254.919 114.129 254.562 114.414C254.206 114.699 254.028 115.086 254.028 115.575C254.028 116.043 254.196 116.4 254.532 116.644C254.868 116.889 255.449 117.144 256.274 117.408C256.569 117.5 256.778 117.566 256.9 117.607C257.022 117.648 257.211 117.719 257.465 117.821C257.73 117.923 257.924 118.004 258.046 118.065C258.168 118.126 258.331 118.213 258.535 118.325C258.749 118.437 258.907 118.544 259.009 118.646C259.11 118.748 259.228 118.875 259.36 119.028C259.503 119.171 259.604 119.318 259.665 119.471C259.727 119.624 259.778 119.802 259.818 120.006C259.869 120.199 259.895 120.408 259.895 120.632C259.895 121.569 259.553 122.318 258.871 122.878C258.189 123.428 257.297 123.703 256.197 123.703Z" fill="white"/>
<path d="M236.062 112.809H237.468V123.504H236.062V118.691H230.867V123.504H229.446V112.809H230.867V117.347H236.062V112.809Z" fill="white"/>
<path d="M218.639 123.703C217.02 123.703 215.68 123.169 214.621 122.099C213.572 121.029 213.047 119.715 213.047 118.157C213.047 116.599 213.572 115.285 214.621 114.215C215.68 113.146 217.02 112.611 218.639 112.611C219.617 112.611 220.513 112.845 221.328 113.314C222.153 113.782 222.795 114.414 223.253 115.208L222.016 115.926C221.71 115.336 221.252 114.867 220.641 114.521C220.04 114.164 219.373 113.986 218.639 113.986C217.407 113.986 216.398 114.383 215.614 115.178C214.84 115.972 214.453 116.965 214.453 118.157C214.453 119.339 214.84 120.327 215.614 121.121C216.398 121.916 217.407 122.313 218.639 122.313C219.373 122.313 220.04 122.14 220.641 121.793C221.252 121.437 221.71 120.968 222.016 120.388L223.253 121.091C222.805 121.885 222.169 122.522 221.344 123C220.518 123.469 219.617 123.703 218.639 123.703Z" fill="white"/>
<path d="M202.423 122.16H207.389V123.504H201.002V112.809H207.312V114.154H202.423V117.439H206.93V118.768H202.423V122.16Z" fill="white"/>
<path d="M195.012 112.809V114.154H191.849V123.504H190.443V114.154H187.296V112.809H195.012Z" fill="white"/>
<path fill-rule="evenodd" clip-rule="evenodd" d="M186.766 98V23H201.766V98H186.766Z" fill="white"/>
<path fill-rule="evenodd" clip-rule="evenodd" d="M409.766 98H349.766V83H409.766V98Z" fill="white"/>
<path fill-rule="evenodd" clip-rule="evenodd" d="M260.766 98H186.766V83H260.766V98Z" fill="white"/>
<path fill-rule="evenodd" clip-rule="evenodd" d="M483.766 98H424.766V83H483.766V98Z" fill="white"/>
<path fill-rule="evenodd" clip-rule="evenodd" d="M557.766 98H498.766V83H557.766V98Z" fill="white"/>
<path fill-rule="evenodd" clip-rule="evenodd" d="M335.766 69H275.766V54H335.766V69Z" fill="white"/>
<path fill-rule="evenodd" clip-rule="evenodd" d="M409.766 69H350.766V54H409.766V69Z" fill="white"/>
<path fill-rule="evenodd" clip-rule="evenodd" d="M335.766 38H275.766V23H335.766V38Z" fill="white"/>
<path fill-rule="evenodd" clip-rule="evenodd" d="M557.766 38H498.766V23H557.766V38Z" fill="white"/>
<path fill-rule="evenodd" clip-rule="evenodd" d="M215.766 98L215.766 54L230.596 54L230.596 98L215.766 98Z" fill="white"/>
<path fill-rule="evenodd" clip-rule="evenodd" d="M245.766 98V23H260.766V98H245.766Z" fill="white"/>
<path fill-rule="evenodd" clip-rule="evenodd" d="M275.766 98V23H290.766V98H275.766Z" fill="white"/>
<path fill-rule="evenodd" clip-rule="evenodd" d="M320.766 98V23H335.766V98H320.766Z" fill="white"/>
<path fill-rule="evenodd" clip-rule="evenodd" d="M350.766 69V23H365.766V69H350.766Z" fill="white"/>
<path fill-rule="evenodd" clip-rule="evenodd" d="M394.766 98V23H409.766V98H394.766Z" fill="white"/>
<path fill-rule="evenodd" clip-rule="evenodd" d="M424.766 98V23H439.596V98H424.766Z" fill="white"/>
<path fill-rule="evenodd" clip-rule="evenodd" d="M468.766 98V23H483.596V98H468.766Z" fill="white"/>
<path fill-rule="evenodd" clip-rule="evenodd" d="M498.766 98V23H513.596V98H498.766Z" fill="white"/>
<path fill-rule="evenodd" clip-rule="evenodd" d="M542.766 98L542.766 54L557.766 54L557.766 98L542.766 98Z" fill="white"/>
</svg>
